<svg xmlns="http://www.w3.org/2000/svg" width="15" height="15" fill="none" viewBox="0 0 15 15"><path stroke="#292D32" stroke-linecap="round" stroke-linejoin="round" stroke-width="1.2" d="M4.1875 5.78735L7.49999 7.7061L10.7875 5.79985"/><path stroke="#292D32" stroke-linecap="round" stroke-linejoin="round" stroke-width="1.2" d="M7.5 11.1062V7.69995"/><path stroke="#292D32" stroke-linecap="round" stroke-linejoin="round" stroke-width="1.2" d="M6.72491 3.93116L4.72491 5.04366C4.27491 5.29366 3.8999 5.92491 3.8999 6.44366V8.56241C3.8999 9.08116 4.26866 9.71241 4.72491 9.96241L6.72491 11.0749C7.14991 11.3124 7.84991 11.3124 8.28116 11.0749L10.2812 9.96241C10.7312 9.71241 11.1062 9.08116 11.1062 8.56241V6.43741C11.1062 5.91866 10.7374 5.28741 10.2812 5.03741L8.28116 3.92491C7.84991 3.68741 7.14991 3.68741 6.72491 3.93116Z"/><path stroke="#292D32" stroke-linecap="round" stroke-linejoin="round" stroke-width="1.2" d="M13.75 9.375C13.75 11.7937 11.7937 13.75 9.375 13.75L10.0312 12.6562"/><path stroke="#292D32" stroke-linecap="round" stroke-linejoin="round" stroke-width="1.2" d="M1.25 5.625C1.25 3.20625 3.20625 1.25 5.625 1.25L4.96876 2.34375"/></svg>