<svg xmlns="http://www.w3.org/2000/svg" width="16" height="18" fill="none" viewBox="0 0 16 18"><path stroke="#222" stroke-linecap="round" stroke-linejoin="round" stroke-width="1.2" d="M7.99992 16.0231C11.6818 16.0231 14.6666 12.8777 14.6666 8.99773C14.6666 5.11775 11.6818 1.97241 7.99992 1.97241C4.31802 1.97241 1.33325 5.11775 1.33325 8.99773C1.33325 12.8777 4.31802 16.0231 7.99992 16.0231Z"/><path stroke="#222" stroke-linecap="round" stroke-linejoin="round" stroke-width="1.2" d="M6.06006 6.89014C6.21679 6.42062 6.52616 6.0247 6.93336 5.77251C7.34056 5.52032 7.81932 5.42813 8.28484 5.51227C8.75036 5.59642 9.1726 5.85147 9.47678 6.23224C9.78095 6.61302 9.94743 7.09495 9.94672 7.59267C9.94672 8.99774 7.94673 9.70027 7.94673 9.70027"/><path stroke="#222" stroke-linecap="round" stroke-linejoin="round" stroke-width="1.2" d="M8 12.5105H8.00667"/></svg>