<svg width="16" height="16" viewBox="0 0 16 16" fill="none" xmlns="http://www.w3.org/2000/svg">
<path d="M11.9795 0H4.0204C3.61219 0 3.28223 0.33052 3.28223 0.738178V15.2615C3.28223 15.6694 3.61248 16 4.0204 16H11.9795C12.3871 16 12.7177 15.6694 12.7177 15.2615V0.738178C12.7179 0.330257 12.3871 0 11.9795 0ZM7.18436 0.871181H8.81496C8.9002 0.871181 8.96892 0.939932 8.96892 1.02513C8.96892 1.11033 8.9002 1.17909 8.81496 1.17909H7.18436C7.09972 1.17909 7.03041 1.11033 7.03041 1.02513C7.03041 0.939932 7.09972 0.871181 7.18436 0.871181ZM8.98458 14.6868H7.01504C6.85355 14.6868 6.72251 14.556 6.72251 14.3945C6.72251 14.2331 6.85355 14.1023 7.01504 14.1023H8.98455C9.14601 14.1023 9.2765 14.2331 9.2765 14.3945C9.27653 14.556 9.14633 14.6868 8.98458 14.6868ZM11.7951 12.964H4.20483V2.50234H11.7951V12.964Z" fill="black"/>
</svg>
