<svg xmlns="http://www.w3.org/2000/svg" width="16" height="16" fill="none" viewBox="0 0 16 16"><path fill="#000" d="M5.60189 10.9379C5.65322 11.1733 5.71322 11.3739 5.78655 11.5679L5.77655 11.5373C5.85789 11.5406 5.93922 11.5433 6.02189 11.5433C6.02189 11.5433 6.02189 11.5433 6.02255 11.5433C6.38389 11.5433 6.73722 11.5086 7.07922 11.4426L7.04455 11.4479L6.74589 11.1493L7.45322 10.4419L8.13389 11.1226C8.65589 10.9026 9.10589 10.6293 9.50789 10.2999L9.49789 10.3079L9.13455 9.9446L9.84189 9.23727L10.2146 9.60993C10.5592 9.20993 10.8512 8.75193 11.0726 8.2546L11.0866 8.21927L10.4592 7.59193L11.1666 6.8846L11.4286 7.1466C11.5019 6.8086 11.5439 6.4206 11.5439 6.0226C11.5439 6.02193 11.5439 6.02127 11.5439 6.0206C11.5439 5.91793 11.5406 5.81593 11.5352 5.7146C11.3619 5.64993 11.1499 5.58993 10.9326 5.54593L10.9039 5.54127L11.0979 4.55993C11.1877 4.57771 11.2766 4.59771 11.3646 4.61993C10.7432 2.25127 8.58389 0.499268 6.02322 0.499268C2.97855 0.499268 0.501221 2.9766 0.501221 6.02127C0.501221 8.60327 2.28255 10.7766 4.68055 11.3779C4.66055 11.3024 4.64233 11.2262 4.62589 11.1493L5.60189 10.9379ZM1.49989 6.02193C1.49989 3.5286 3.52855 1.49993 6.02189 1.49993C8.51522 1.49993 10.5439 3.5286 10.5439 6.02193C10.5439 8.51527 8.51522 10.5439 6.02189 10.5439C3.52855 10.5439 1.49989 8.51527 1.49989 6.02193Z"/><path fill="#000" d="M8.91202 5.59329L9.39669 5.47129L9.15202 4.50195L8.66735 4.62395C6.64069 5.15062 5.08802 6.74729 4.63402 8.76062L4.62669 8.79729L4.52002 9.28595L5.49735 9.49862L5.60402 9.00995C5.98669 7.33395 7.25535 6.02862 8.88069 5.59995L8.91269 5.59262L8.91202 5.59329Z"/><path fill="#000" d="M11.3634 4.62055C11.2754 4.59877 11.1865 4.57877 11.0967 4.56055L10.9027 5.54188C12.9927 5.96721 14.5434 7.78988 14.5434 9.97455C14.5434 9.97588 14.5434 9.97721 14.5434 9.97788C14.5434 10.0705 14.54 10.1625 14.5347 10.2545L15.2007 10.9205L14.4934 11.6279L14.302 11.4365C14.1087 11.9925 13.8307 12.4732 13.4794 12.8892L13.4847 12.8825L13.752 13.1499L13.0447 13.8572L12.7614 13.5739C12.3507 13.8905 11.8714 14.1419 11.3514 14.3025L11.3194 14.3112L11.3634 14.3552L10.656 15.0625L10.094 14.5005C10.07 14.5012 10.0454 14.5012 10.0214 14.5012C8.11736 14.5012 6.42136 13.2872 5.77602 11.5392C5.71269 11.3759 5.65269 11.1752 5.60669 10.9692L5.60136 10.9399L4.62402 11.1512C4.64047 11.2277 4.65869 11.3039 4.67869 11.3799C5.32136 13.7705 7.46936 15.5012 10.0214 15.5019C13.066 15.5019 15.5434 13.0245 15.5434 9.97988C15.5434 7.44121 13.8014 5.23055 11.3634 4.62255V4.62055Z"/><path fill="#000" d="M7.45269 10.4426L6.74536 11.15L10.656 15.0606L11.3634 14.3533L7.45269 10.4426Z"/><path fill="#000" d="M9.84137 9.23804L9.13403 9.94537L13.0447 13.856L13.752 13.1487L9.84137 9.23804Z"/><path fill="#000" d="M11.1661 6.88599L10.4587 7.59332L14.4934 11.628L15.2007 10.9207L11.1661 6.88599Z"/></svg>