<svg xmlns="http://www.w3.org/2000/svg" width="16" height="16" fill="none" viewBox="0 0 16 16"><g clip-path="url(#clip0_2069_12790)"><path fill="#292D32" stroke="#292D32" stroke-width=".5" d="M5.82298 1.66732C3.89754 4.97868 0.147782 11.5124 0.159942 11.5339C0.172262 11.5523 1.31578 11.5646 3.29034 11.5646C5.59594 11.5646 6.3993 11.5739 6.3993 11.5984C6.3993 11.672 6.6937 12.2268 6.8745 12.4875C7.64714 13.6219 8.80298 14.3609 10.1582 14.5878C10.5262 14.6491 11.2772 14.6584 11.6268 14.6032C12.3903 14.4836 13.0403 14.2321 13.6811 13.8091C14.0735 13.5484 14.7113 12.92 14.975 12.5305C16.3271 10.5284 16.0726 7.92828 14.3587 6.21132C12.8563 4.71196 10.7131 4.37788 8.7785 5.34668C8.5761 5.4478 8.4657 5.48764 8.44426 5.4662C8.4289 5.45084 7.88618 4.52188 7.2393 3.40268C6.59546 2.28668 6.05274 1.36684 6.03738 1.36076C6.02234 1.35772 5.9241 1.4926 5.82298 1.66732ZM8.10106 6.32156C9.22938 8.2686 10.2687 10.0683 10.419 10.3228L10.6857 10.7827L8.3617 10.7918C7.08314 10.7948 4.97978 10.7948 3.68906 10.7918L1.34042 10.7827L2.21738 9.26492C2.69882 8.431 3.73818 6.63724 4.52298 5.279C5.30794 3.92076 5.9609 2.79244 5.9793 2.771C5.9977 2.74956 6.01914 2.74332 6.03146 2.75564C6.04378 2.76812 6.97578 4.37468 8.10106 6.32156ZM11.7681 5.58572C13.2766 5.89532 14.4846 6.96236 14.9691 8.41564C15.294 9.39068 15.2481 10.4545 14.8433 11.4142C14.5734 12.055 14.0553 12.7142 13.4851 13.1465C13.1662 13.3888 12.5254 13.7107 12.1483 13.818C11.6607 13.959 11.3449 13.9958 10.7839 13.9774C10.3854 13.9651 10.2137 13.9436 9.96842 13.8824C9.42266 13.7475 8.94442 13.536 8.51514 13.2385C8.23002 13.0424 7.7609 12.5977 7.56778 12.3401C7.41754 12.1377 7.15386 11.7177 7.11706 11.6196C7.09866 11.5675 7.22442 11.5644 9.49018 11.5644C10.9833 11.5644 11.8908 11.5521 11.9031 11.5337C11.9155 11.5123 10.3977 8.85404 8.86154 6.20796L8.78794 6.07916L9.02714 5.95964C9.45946 5.74188 9.97146 5.58556 10.4651 5.52428C10.7747 5.4846 11.4215 5.51532 11.7681 5.58572Z"/></g><defs><clipPath id="clip0_2069_12790"><rect width="16" height="16" fill="#fff"/></clipPath></defs></svg>